<?xml version="1.0" standalone="no"?>
<!DOCTYPE svg PUBLIC "-//W3C//DTD SVG 20010904//EN"
 "http://www.w3.org/TR/2001/REC-SVG-20010904/DTD/svg10.dtd">
<svg version="1.0" xmlns="http://www.w3.org/2000/svg"
 width="400.000000pt" height="400.000000pt" viewBox="0 0 400.000000 400.000000"
 preserveAspectRatio="xMidYMid meet">
<metadata>
Created by potrace 1.14, written by Peter Selinger 2001-2017
</metadata>
<g transform="translate(0.000000,400.000000) scale(0.100000,-0.100000)"
fill="#000000" stroke="none">
<path d="M1805 3878 c-550 -55 -1055 -363 -1379 -841 -61 -90 -132 -216 -124
-221 31 -23 1705 -906 1713 -904 15 4 1667 878 1678 888 10 9 -37 104 -100
203 -147 230 -357 441 -592 592 -101 66 -317 167 -432 204 -246 77 -509 105
-764 79z m395 -68 c275 -33 539 -125 768 -268 216 -135 426 -338 569 -552 82
-124 109 -178 98 -196 -10 -15 -1520 -820 -1597 -852 l-37 -14 -809 431 c-446
238 -815 438 -822 446 -14 16 9 64 83 175 176 266 406 475 687 627 164 88 398
166 580 192 41 6 86 13 100 15 56 8 301 5 380 -4z"/>
<path d="M291 2676 c15 -15 1716 -916 1725 -914 21 6 1703 912 1699 916 -2 2
-382 -199 -843 -447 -462 -248 -850 -451 -862 -451 -12 0 -401 203 -865 450
-747 399 -872 464 -854 446z"/>
<path d="M197 2543 c-43 -132 -74 -275 -81 -368 l-5 -70 10 60 c24 147 53 275
84 373 19 59 32 108 30 110 -2 2 -19 -45 -38 -105z"/>
<path d="M3775 2630 c3 -14 21 -83 40 -155 19 -71 41 -179 49 -240 23 -165 23
-165 25 -126 3 80 -58 382 -99 491 -11 30 -18 44 -15 30z"/>
<path d="M135 2062 c6 -6 266 -146 580 -313 314 -166 578 -309 588 -318 14
-14 15 -20 5 -33 -7 -8 -213 -120 -458 -248 -245 -127 -449 -237 -455 -242 -5
-6 10 0 35 12 98 49 925 483 932 489 3 3 -206 119 -465 256 -649 344 -774 409
-762 397z"/>
<path d="M3258 1732 c-334 -180 -604 -330 -600 -333 7 -6 837 -446 912 -484
19 -9 31 -13 25 -7 -5 6 -201 111 -434 235 -233 124 -433 232 -444 242 -19 17
-19 17 -1 35 11 10 271 154 579 320 492 264 594 321 575 320 -3 -1 -278 -148
-612 -328z"/>
<path d="M130 1888 c0 -203 35 -384 112 -583 42 -110 139 -307 152 -308 11 0
825 417 826 423 0 5 -1055 579 -1081 588 -5 2 -9 -50 -9 -120z m530 -231 c250
-135 456 -253 458 -260 4 -17 -659 -361 -697 -362 -20 0 -30 13 -62 75 -119
234 -189 494 -189 706 0 81 5 98 24 91 6 -3 216 -115 466 -250z"/>
<path d="M3341 1714 c-300 -162 -546 -296 -548 -298 -3 -2 62 -38 144 -79 81
-41 265 -136 407 -211 142 -75 263 -136 268 -136 12 0 117 222 158 335 67 183
108 380 117 563 3 67 4 122 2 122 -2 -1 -249 -134 -548 -296z m496 74 c-12
-190 -88 -461 -180 -649 -38 -77 -57 -105 -73 -107 -11 -2 -154 67 -330 158
-377 197 -361 188 -341 207 23 23 889 491 911 492 18 1 19 -5 13 -101z"/>
<path d="M1469 728 c-283 -155 -536 -289 -562 -298 l-48 -17 33 -25 c98 -75
303 -182 443 -233 221 -80 423 -116 660 -116 379 0 729 104 1050 312 l80 52
-34 9 c-26 7 -772 408 -1057 569 l-50 28 -515 -281z"/>
</g>
</svg>
